<svg width="2095" height="650" viewBox="0 0 2095 650" fill="none" xmlns="http://www.w3.org/2000/svg">
<g filter="url(#filter0_d)">
<rect x="50" y="50" width="550" height="550" rx="275" fill="white"/>
<rect x="50.5" y="50.5" width="549" height="549" rx="274.5" stroke="#CBCBCB"/>
</g>
<rect x="75" y="74" width="500" height="500" rx="250" fill="url(#paint0_linear)"/>
<path d="M273.67 454.26C256.077 454.26 242.35 447.493 232.49 433.96C227.657 427.58 223.983 419.943 221.47 411.05C218.957 402.157 217.7 392.393 217.7 381.76C217.7 373.447 214.897 366.197 209.29 360.01C203.49 353.823 196.917 350.73 189.57 350.73C188.797 350.73 188.12 350.247 187.54 349.28C186.96 346.96 186.67 342.997 186.67 337.39V328.69V324.63L186.96 320.86L188.12 289.54C197.207 287.22 204.167 283.643 209 278.81C214.8 273.59 217.7 266.92 217.7 258.8C217.7 237.533 222.63 220.52 232.49 207.76C237.323 201.38 243.22 196.45 250.18 192.97C257.14 189.49 264.97 187.75 273.67 187.75C284.11 187.75 294.743 191.23 305.57 198.19L309.92 241.4C306.053 241.787 303.25 241.98 301.51 241.98C293.583 241.98 287.783 243.913 284.11 247.78C281.983 251.26 280.92 254.16 280.92 256.48C280.92 267.113 279.47 276.78 276.57 285.48C273.67 294.76 269.32 302.783 263.52 309.55C260.233 312.257 256.463 314.383 252.21 315.93C249.89 317.09 247.86 317.96 246.12 318.54C244.38 318.733 241.963 319.603 238.87 321.15C240.03 321.537 241.19 322.02 242.35 322.6C243.51 322.987 244.767 323.373 246.12 323.76C249.213 324.727 253.08 326.66 257.72 329.56C259.073 330.14 261.007 331.59 263.52 333.91C269.32 340.483 273.67 348.217 276.57 357.11C279.47 366.003 280.92 375.38 280.92 385.24C280.92 388.333 281.983 391.137 284.11 393.65C286.237 396.163 289.233 397.807 293.1 398.58C295.42 399.353 298.223 399.74 301.51 399.74C302.477 399.74 303.637 399.837 304.99 400.03C306.343 400.03 307.987 400.223 309.92 400.61L305.57 443.82C294.743 450.78 284.11 454.26 273.67 454.26ZM376.62 454.26C365.793 454.26 354.967 450.78 344.14 443.82L339.79 400.61C339.79 400.61 342.69 400.32 348.49 399.74C356.223 399.74 362.023 397.807 365.89 393.94C368.21 391.04 369.37 388.14 369.37 385.24C369.37 374.22 370.627 364.843 373.14 357.11C375.653 348.023 379.713 340.29 385.32 333.91C388.413 330.817 392.28 328.207 396.92 326.08C398.273 325.307 400.207 324.533 402.72 323.76C403.687 323.567 404.847 323.18 406.2 322.6C407.747 321.827 409.003 321.343 409.97 321.15C406.49 319.603 404.073 318.733 402.72 318.54C397.307 316.8 393.44 315.157 391.12 313.61C388.8 312.45 386.867 311.097 385.32 309.55C379.52 302.977 375.363 294.953 372.85 285.48C370.53 277.747 369.37 268.08 369.37 256.48C369.37 253.387 368.21 250.583 365.89 248.07C363.57 245.557 360.477 243.913 356.61 243.14C353.13 242.367 350.423 241.98 348.49 241.98C347.33 241.98 344.43 241.787 339.79 241.4L344.14 198.19C354.967 191.23 365.793 187.75 376.62 187.75C385.127 187.75 392.86 189.49 399.82 192.97C406.78 196.45 412.677 201.38 417.51 207.76C427.37 220.133 432.3 237.147 432.3 258.8C432.3 266.92 435.2 273.59 441 278.81C446.413 283.837 453.47 287.413 462.17 289.54L462.75 320.86C463.137 322.987 463.427 324.243 463.62 324.63V328.69V337.39C463.62 342.803 463.137 346.767 462.17 349.28C462.17 350.247 461.687 350.73 460.72 350.73C452.987 350.73 446.22 353.823 440.42 360.01C435.007 366.39 432.3 373.64 432.3 381.76C432.3 403.8 427.37 421.2 417.51 433.96C412.677 440.533 406.78 445.56 399.82 449.04C392.86 452.52 385.127 454.26 376.62 454.26Z" fill="url(#paint1_linear)"/>
<path d="M853.346 408H823.023V395.402C817.164 400.578 811.256 404.533 805.299 407.268C799.342 410.002 792.555 411.369 784.938 411.369C776.148 411.369 767.994 409.611 760.475 406.096C752.955 402.58 746.461 397.697 740.992 391.447C735.621 385.1 731.373 377.531 728.248 368.742C725.221 359.953 723.707 350.334 723.707 339.885C723.707 329.533 725.221 319.963 728.248 311.174C731.373 302.287 735.621 294.719 740.992 288.469C746.461 282.121 752.955 277.189 760.475 273.674C767.994 270.061 776.148 268.254 784.938 268.254C792.555 268.254 799.342 269.572 805.299 272.209C811.256 274.748 817.164 278.605 823.023 283.781V244.23H796.656V216.838H853.346V408ZM823.023 307.805C819.41 303.801 814.723 300.773 808.961 298.723C803.297 296.574 797.877 295.5 792.701 295.5C781.275 295.5 771.949 299.602 764.723 307.805C757.594 316.008 754.029 326.701 754.029 339.885C754.029 353.068 757.594 363.713 764.723 371.818C771.949 379.924 781.275 383.977 792.701 383.977C797.877 383.977 803.297 382.951 808.961 380.9C814.723 378.752 819.41 375.676 823.023 371.672V307.805ZM915.602 351.311C917.066 360.686 921.51 368.498 928.932 374.748C936.451 380.9 946.51 383.977 959.107 383.977C968.971 383.977 977.516 382.463 984.742 379.436C992.066 376.311 998.365 372.209 1003.64 367.131L1019.17 388.518C1010.38 397.307 1001.05 403.312 991.188 406.535C981.422 409.758 970.729 411.369 959.107 411.369C948.561 411.369 938.746 409.611 929.664 406.096C920.582 402.58 912.721 397.697 906.08 391.447C899.439 385.1 894.215 377.58 890.406 368.889C886.695 360.197 884.84 350.529 884.84 339.885C884.84 329.533 886.549 320.012 889.967 311.32C893.482 302.531 898.365 294.963 904.615 288.615C910.963 282.17 918.531 277.189 927.32 273.674C936.109 270.061 945.826 268.254 956.471 268.254C967.506 268.254 977.516 270.158 986.5 273.967C995.484 277.678 1003.15 283.098 1009.5 290.227C1015.94 297.355 1020.97 306.096 1024.59 316.447C1028.2 326.701 1030.01 338.322 1030.01 351.311H915.602ZM995.729 324.65C994.166 315.861 989.625 308.83 982.105 303.557C974.586 298.186 966.041 295.5 956.471 295.5C946.9 295.5 938.307 298.186 930.689 303.557C923.072 308.83 918.482 315.861 916.92 324.65H995.729ZM1188.06 271.477L1137.67 408H1101.93L1051.54 271.477H1083.91L1119.95 374.748L1155.69 271.477H1188.06Z" fill="#464545"/>
<path d="M1347 355.559C1347 364.348 1345.48 372.209 1342.46 379.143C1339.53 385.979 1335.47 391.789 1330.3 396.574C1325.22 401.359 1319.12 405.021 1311.99 407.561C1304.96 410.1 1297.44 411.369 1289.43 411.369C1280.45 411.369 1272.34 409.758 1265.11 406.535C1257.89 403.312 1251.69 397.99 1246.51 390.568V408H1219.26V345.598H1246.51C1246.51 351.848 1247.58 357.365 1249.73 362.15C1251.98 366.936 1254.91 370.988 1258.52 374.309C1262.13 377.531 1266.33 380.021 1271.12 381.779C1275.9 383.439 1280.98 384.27 1286.35 384.27C1295.44 384.27 1302.76 382.17 1308.33 377.971C1313.89 373.771 1316.68 367.082 1316.68 357.902C1316.68 353.117 1315.8 349.016 1314.04 345.598C1312.38 342.18 1309.94 339.152 1306.71 336.516C1303.59 333.781 1299.73 331.438 1295.14 329.484C1290.55 327.434 1285.33 325.285 1279.47 323.039C1272.54 320.695 1265.6 318.059 1258.67 315.129C1251.73 312.199 1245.53 308.586 1240.06 304.289C1234.6 299.992 1230.15 294.719 1226.73 288.469C1223.32 282.121 1221.61 274.162 1221.61 264.592C1221.61 256.193 1223.12 248.869 1226.15 242.619C1229.27 236.271 1233.38 230.949 1238.45 226.652C1243.63 222.355 1249.59 219.133 1256.32 216.984C1263.16 214.738 1270.39 213.615 1278 213.615C1286.79 213.615 1294.31 215.471 1300.56 219.182C1306.91 222.893 1311.79 227.824 1315.21 233.977V216.838H1342.46V276.311H1315.21C1315.21 265.08 1312.23 256.34 1306.28 250.09C1300.42 243.742 1292.51 240.568 1282.54 240.568C1273.76 240.568 1266.43 242.619 1260.57 246.721C1254.81 250.822 1251.93 256.584 1251.93 264.006C1251.93 267.814 1252.66 271.086 1254.13 273.82C1255.69 276.457 1257.89 278.898 1260.72 281.145C1263.65 283.293 1267.31 285.344 1271.71 287.297C1276.1 289.152 1281.18 291.203 1286.94 293.449C1294.17 295.988 1301.34 298.869 1308.47 302.092C1315.6 305.314 1322 309.27 1327.66 313.957C1333.33 318.645 1337.96 324.357 1341.58 331.096C1345.19 337.736 1347 345.891 1347 355.559ZM1386.26 271.477H1416.58V283.781C1422.34 278.605 1428.15 274.748 1434.01 272.209C1439.97 269.572 1446.75 268.254 1454.37 268.254C1463.16 268.254 1471.31 270.061 1478.83 273.674C1486.35 277.189 1492.8 282.121 1498.17 288.469C1503.54 294.719 1507.79 302.287 1510.91 311.174C1514.04 319.963 1515.6 329.533 1515.6 339.885C1515.6 350.334 1514.04 359.953 1510.91 368.742C1507.79 377.531 1503.54 385.1 1498.17 391.447C1492.8 397.697 1486.35 402.58 1478.83 406.096C1471.31 409.611 1463.16 411.369 1454.37 411.369C1446.75 411.369 1439.97 410.002 1434.01 407.268C1428.15 404.533 1422.34 400.578 1416.58 395.402V462.639H1386.26V271.477ZM1416.58 371.379C1420.19 375.383 1424.78 378.508 1430.35 380.754C1436.01 382.902 1441.43 383.977 1446.61 383.977C1458.03 383.977 1467.31 379.924 1474.44 371.818C1481.67 363.713 1485.28 353.068 1485.28 339.885C1485.28 326.701 1481.67 316.008 1474.44 307.805C1467.31 299.602 1458.03 295.5 1446.61 295.5C1441.43 295.5 1436.01 296.574 1430.35 298.723C1424.78 300.773 1420.19 303.801 1416.58 307.805V371.379ZM1542.26 368.742C1542.26 360.734 1544.41 353.752 1548.71 347.795C1553 341.74 1558.62 336.711 1565.55 332.707C1572.58 328.703 1580.59 325.725 1589.58 323.771C1598.66 321.721 1607.89 320.695 1617.26 320.695C1622.44 320.695 1626.88 320.793 1630.59 320.988C1634.3 321.184 1638.06 321.477 1641.87 321.867V316.447C1641.87 309.318 1639.09 303.996 1633.52 300.48C1628.05 296.965 1620.83 295.207 1611.84 295.207C1603.64 295.207 1595.29 296.379 1586.79 298.723C1578.3 300.969 1570.24 304.289 1562.62 308.684L1550.32 284.953C1559.3 279.777 1568.92 275.725 1579.18 272.795C1589.53 269.768 1600.42 268.254 1611.84 268.254C1619.26 268.254 1626.54 269.084 1633.67 270.744C1640.89 272.404 1647.34 275.139 1653 278.947C1658.77 282.756 1663.36 287.736 1666.77 293.889C1670.19 299.943 1671.9 307.463 1671.9 316.447V408H1641.87V387.932C1637.09 395.354 1630.01 401.115 1620.63 405.217C1611.35 409.318 1601.34 411.369 1590.6 411.369C1583.96 411.369 1577.66 410.441 1571.71 408.586C1565.85 406.828 1560.77 404.143 1556.47 400.529C1552.17 396.916 1548.71 392.473 1546.07 387.199C1543.53 381.828 1542.26 375.676 1542.26 368.742ZM1598.37 384.27C1604.32 384.27 1609.89 383.537 1615.06 382.072C1620.34 380.51 1624.98 378.41 1628.98 375.773C1632.98 373.039 1636.11 369.768 1638.36 365.959C1640.7 362.15 1641.87 357.951 1641.87 353.361V348.234C1637.09 347.453 1632.59 347.014 1628.39 346.916C1624.2 346.818 1620.48 346.77 1617.26 346.77C1602.42 346.77 1591.19 348.723 1583.57 352.629C1576.05 356.535 1572.29 361.369 1572.29 367.131C1572.29 378.557 1580.98 384.27 1598.37 384.27ZM1838.01 388.518C1829.22 397.307 1819.95 403.312 1810.18 406.535C1800.51 409.758 1790.02 411.369 1778.69 411.369C1767.26 411.369 1756.86 409.66 1747.49 406.242C1738.21 402.824 1730.3 398.039 1723.76 391.887C1717.31 385.637 1712.33 378.117 1708.81 369.328C1705.4 360.539 1703.69 350.725 1703.69 339.885C1703.69 329.533 1705.4 319.963 1708.81 311.174C1712.33 302.287 1717.02 294.719 1722.88 288.469C1728.83 282.121 1735.82 277.189 1743.82 273.674C1751.83 270.061 1760.33 268.254 1769.31 268.254C1778.69 268.254 1786.84 270.207 1793.78 274.113C1800.71 278.02 1805.74 283.732 1808.86 291.252V271.477H1835.96V335.051H1808.86C1808.86 323.039 1805.54 313.469 1798.9 306.34C1792.36 299.113 1783.81 295.5 1773.27 295.5C1769.07 295.5 1764.62 296.379 1759.94 298.137C1755.35 299.797 1751.1 302.434 1747.19 306.047C1743.38 309.66 1740.21 314.25 1737.67 319.816C1735.13 325.383 1733.86 332.072 1733.86 339.885C1733.86 347.502 1735.08 354.094 1737.53 359.66C1739.97 365.129 1743.14 369.67 1747.05 373.283C1751.05 376.799 1755.74 379.484 1761.11 381.34C1766.58 383.098 1772.19 383.977 1777.96 383.977C1787.82 383.977 1796.36 382.463 1803.59 379.436C1810.91 376.311 1817.21 372.209 1822.49 367.131L1838.01 388.518ZM1898.22 351.311C1899.68 360.686 1904.13 368.498 1911.55 374.748C1919.07 380.9 1929.13 383.977 1941.72 383.977C1951.59 383.977 1960.13 382.463 1967.36 379.436C1974.68 376.311 1980.98 372.209 1986.26 367.131L2001.78 388.518C1992.99 397.307 1983.67 403.312 1973.8 406.535C1964.04 409.758 1953.35 411.369 1941.72 411.369C1931.18 411.369 1921.36 409.611 1912.28 406.096C1903.2 402.58 1895.34 397.697 1888.7 391.447C1882.06 385.1 1876.83 377.58 1873.02 368.889C1869.31 360.197 1867.46 350.529 1867.46 339.885C1867.46 329.533 1869.17 320.012 1872.58 311.32C1876.1 302.531 1880.98 294.963 1887.23 288.615C1893.58 282.17 1901.15 277.189 1909.94 273.674C1918.73 270.061 1928.44 268.254 1939.09 268.254C1950.12 268.254 1960.13 270.158 1969.12 273.967C1978.1 277.678 1985.77 283.098 1992.12 290.227C1998.56 297.355 2003.59 306.096 2007.2 316.447C2010.82 326.701 2012.62 338.322 2012.62 351.311H1898.22ZM1978.35 324.65C1976.78 315.861 1972.24 308.83 1964.72 303.557C1957.2 298.186 1948.66 295.5 1939.09 295.5C1929.52 295.5 1920.92 298.186 1913.31 303.557C1905.69 308.83 1901.1 315.861 1899.54 324.65H1978.35Z" fill="#553E97"/>
<defs>
<filter id="filter0_d" x="0" y="0" width="650" height="650" filterUnits="userSpaceOnUse" color-interpolation-filters="sRGB">
<feFlood flood-opacity="0" result="BackgroundImageFix"/>
<feColorMatrix in="SourceAlpha" type="matrix" values="0 0 0 0 0 0 0 0 0 0 0 0 0 0 0 0 0 0 127 0"/>
<feOffset/>
<feGaussianBlur stdDeviation="25"/>
<feColorMatrix type="matrix" values="0 0 0 0 0.458333 0 0 0 0 0.458333 0 0 0 0 0.458333 0 0 0 0.25 0"/>
<feBlend mode="normal" in2="BackgroundImageFix" result="effect1_dropShadow"/>
<feBlend mode="normal" in="SourceGraphic" in2="effect1_dropShadow" result="shape"/>
</filter>
<linearGradient id="paint0_linear" x1="496" y1="738" x2="271" y2="2.00004" gradientUnits="userSpaceOnUse">
<stop stop-color="#281462"/>
<stop offset="0.993206" stop-color="#755CBD"/>
</linearGradient>
<linearGradient id="paint1_linear" x1="325" y1="87" x2="325" y2="562" gradientUnits="userSpaceOnUse">
<stop stop-color="white"/>
<stop offset="1" stop-color="#E7D9FF"/>
</linearGradient>
</defs>
</svg>
