<svg width="2045" height="550" viewBox="0 0 2045 550" fill="none" xmlns="http://www.w3.org/2000/svg">
<rect width="550" height="550" rx="275" fill="white"/>
<rect x="25" y="24" width="500" height="500" rx="250" fill="url(#paint0_linear)"/>
<path d="M223.67 404.26C206.077 404.26 192.35 397.493 182.49 383.96C177.657 377.58 173.983 369.943 171.47 361.05C168.957 352.157 167.7 342.393 167.7 331.76C167.7 323.447 164.897 316.197 159.29 310.01C153.49 303.823 146.917 300.73 139.57 300.73C138.797 300.73 138.12 300.247 137.54 299.28C136.96 296.96 136.67 292.997 136.67 287.39V278.69V274.63L136.96 270.86L138.12 239.54C147.207 237.22 154.167 233.643 159 228.81C164.8 223.59 167.7 216.92 167.7 208.8C167.7 187.533 172.63 170.52 182.49 157.76C187.323 151.38 193.22 146.45 200.18 142.97C207.14 139.49 214.97 137.75 223.67 137.75C234.11 137.75 244.743 141.23 255.57 148.19L259.92 191.4C256.053 191.787 253.25 191.98 251.51 191.98C243.583 191.98 237.783 193.913 234.11 197.78C231.983 201.26 230.92 204.16 230.92 206.48C230.92 217.113 229.47 226.78 226.57 235.48C223.67 244.76 219.32 252.783 213.52 259.55C210.233 262.257 206.463 264.383 202.21 265.93C199.89 267.09 197.86 267.96 196.12 268.54C194.38 268.733 191.963 269.603 188.87 271.15C190.03 271.537 191.19 272.02 192.35 272.6C193.51 272.987 194.767 273.373 196.12 273.76C199.213 274.727 203.08 276.66 207.72 279.56C209.073 280.14 211.007 281.59 213.52 283.91C219.32 290.483 223.67 298.217 226.57 307.11C229.47 316.003 230.92 325.38 230.92 335.24C230.92 338.333 231.983 341.137 234.11 343.65C236.237 346.163 239.233 347.807 243.1 348.58C245.42 349.353 248.223 349.74 251.51 349.74C252.477 349.74 253.637 349.837 254.99 350.03C256.343 350.03 257.987 350.223 259.92 350.61L255.57 393.82C244.743 400.78 234.11 404.26 223.67 404.26ZM326.62 404.26C315.793 404.26 304.967 400.78 294.14 393.82L289.79 350.61C289.79 350.61 292.69 350.32 298.49 349.74C306.223 349.74 312.023 347.807 315.89 343.94C318.21 341.04 319.37 338.14 319.37 335.24C319.37 324.22 320.627 314.843 323.14 307.11C325.653 298.023 329.713 290.29 335.32 283.91C338.413 280.817 342.28 278.207 346.92 276.08C348.273 275.307 350.207 274.533 352.72 273.76C353.687 273.567 354.847 273.18 356.2 272.6C357.747 271.827 359.003 271.343 359.97 271.15C356.49 269.603 354.073 268.733 352.72 268.54C347.307 266.8 343.44 265.157 341.12 263.61C338.8 262.45 336.867 261.097 335.32 259.55C329.52 252.977 325.363 244.953 322.85 235.48C320.53 227.747 319.37 218.08 319.37 206.48C319.37 203.387 318.21 200.583 315.89 198.07C313.57 195.557 310.477 193.913 306.61 193.14C303.13 192.367 300.423 191.98 298.49 191.98C297.33 191.98 294.43 191.787 289.79 191.4L294.14 148.19C304.967 141.23 315.793 137.75 326.62 137.75C335.127 137.75 342.86 139.49 349.82 142.97C356.78 146.45 362.677 151.38 367.51 157.76C377.37 170.133 382.3 187.147 382.3 208.8C382.3 216.92 385.2 223.59 391 228.81C396.413 233.837 403.47 237.413 412.17 239.54L412.75 270.86C413.137 272.987 413.427 274.243 413.62 274.63V278.69V287.39C413.62 292.803 413.137 296.767 412.17 299.28C412.17 300.247 411.687 300.73 410.72 300.73C402.987 300.73 396.22 303.823 390.42 310.01C385.007 316.39 382.3 323.64 382.3 331.76C382.3 353.8 377.37 371.2 367.51 383.96C362.677 390.533 356.78 395.56 349.82 399.04C342.86 402.52 335.127 404.26 326.62 404.26Z" fill="url(#paint1_linear)"/>
<path d="M803.346 352H773.023V339.402C767.164 344.578 761.256 348.533 755.299 351.268C749.342 354.002 742.555 355.369 734.938 355.369C726.148 355.369 717.994 353.611 710.475 350.096C702.955 346.58 696.461 341.697 690.992 335.447C685.621 329.1 681.373 321.531 678.248 312.742C675.221 303.953 673.707 294.334 673.707 283.885C673.707 273.533 675.221 263.963 678.248 255.174C681.373 246.287 685.621 238.719 690.992 232.469C696.461 226.121 702.955 221.189 710.475 217.674C717.994 214.061 726.148 212.254 734.938 212.254C742.555 212.254 749.342 213.572 755.299 216.209C761.256 218.748 767.164 222.605 773.023 227.781V188.23H746.656V160.838H803.346V352ZM773.023 251.805C769.41 247.801 764.723 244.773 758.961 242.723C753.297 240.574 747.877 239.5 742.701 239.5C731.275 239.5 721.949 243.602 714.723 251.805C707.594 260.008 704.029 270.701 704.029 283.885C704.029 297.068 707.594 307.713 714.723 315.818C721.949 323.924 731.275 327.977 742.701 327.977C747.877 327.977 753.297 326.951 758.961 324.9C764.723 322.752 769.41 319.676 773.023 315.672V251.805ZM865.602 295.311C867.066 304.686 871.51 312.498 878.932 318.748C886.451 324.9 896.51 327.977 909.107 327.977C918.971 327.977 927.516 326.463 934.742 323.436C942.066 320.311 948.365 316.209 953.639 311.131L969.166 332.518C960.377 341.307 951.051 347.312 941.188 350.535C931.422 353.758 920.729 355.369 909.107 355.369C898.561 355.369 888.746 353.611 879.664 350.096C870.582 346.58 862.721 341.697 856.08 335.447C849.439 329.1 844.215 321.58 840.406 312.889C836.695 304.197 834.84 294.529 834.84 283.885C834.84 273.533 836.549 264.012 839.967 255.32C843.482 246.531 848.365 238.963 854.615 232.615C860.963 226.17 868.531 221.189 877.32 217.674C886.109 214.061 895.826 212.254 906.471 212.254C917.506 212.254 927.516 214.158 936.5 217.967C945.484 221.678 953.15 227.098 959.498 234.227C965.943 241.355 970.973 250.096 974.586 260.447C978.199 270.701 980.006 282.322 980.006 295.311H865.602ZM945.729 268.65C944.166 259.861 939.625 252.83 932.105 247.557C924.586 242.186 916.041 239.5 906.471 239.5C896.9 239.5 888.307 242.186 880.689 247.557C873.072 252.83 868.482 259.861 866.92 268.65H945.729ZM1138.06 215.477L1087.67 352H1051.93L1001.54 215.477H1033.91L1069.95 318.748L1105.69 215.477H1138.06Z" fill="#464545"/>
<path d="M1297 299.559C1297 308.348 1295.48 316.209 1292.46 323.143C1289.53 329.979 1285.47 335.789 1280.3 340.574C1275.22 345.359 1269.12 349.021 1261.99 351.561C1254.96 354.1 1247.44 355.369 1239.43 355.369C1230.45 355.369 1222.34 353.758 1215.11 350.535C1207.89 347.312 1201.69 341.99 1196.51 334.568V352H1169.26V289.598H1196.51C1196.51 295.848 1197.58 301.365 1199.73 306.15C1201.98 310.936 1204.91 314.988 1208.52 318.309C1212.13 321.531 1216.33 324.021 1221.12 325.779C1225.9 327.439 1230.98 328.27 1236.35 328.27C1245.44 328.27 1252.76 326.17 1258.33 321.971C1263.89 317.771 1266.68 311.082 1266.68 301.902C1266.68 297.117 1265.8 293.016 1264.04 289.598C1262.38 286.18 1259.94 283.152 1256.71 280.516C1253.59 277.781 1249.73 275.438 1245.14 273.484C1240.55 271.434 1235.33 269.285 1229.47 267.039C1222.54 264.695 1215.6 262.059 1208.67 259.129C1201.73 256.199 1195.53 252.586 1190.06 248.289C1184.6 243.992 1180.15 238.719 1176.73 232.469C1173.32 226.121 1171.61 218.162 1171.61 208.592C1171.61 200.193 1173.12 192.869 1176.15 186.619C1179.27 180.271 1183.38 174.949 1188.45 170.652C1193.63 166.355 1199.59 163.133 1206.32 160.984C1213.16 158.738 1220.39 157.615 1228 157.615C1236.79 157.615 1244.31 159.471 1250.56 163.182C1256.91 166.893 1261.79 171.824 1265.21 177.977V160.838H1292.46V220.311H1265.21C1265.21 209.08 1262.23 200.34 1256.28 194.09C1250.42 187.742 1242.51 184.568 1232.54 184.568C1223.76 184.568 1216.43 186.619 1210.57 190.721C1204.81 194.822 1201.93 200.584 1201.93 208.006C1201.93 211.814 1202.66 215.086 1204.13 217.82C1205.69 220.457 1207.89 222.898 1210.72 225.145C1213.65 227.293 1217.31 229.344 1221.71 231.297C1226.1 233.152 1231.18 235.203 1236.94 237.449C1244.17 239.988 1251.34 242.869 1258.47 246.092C1265.6 249.314 1272 253.27 1277.66 257.957C1283.33 262.645 1287.96 268.357 1291.58 275.096C1295.19 281.736 1297 289.891 1297 299.559ZM1336.26 215.477H1366.58V227.781C1372.34 222.605 1378.15 218.748 1384.01 216.209C1389.97 213.572 1396.75 212.254 1404.37 212.254C1413.16 212.254 1421.31 214.061 1428.83 217.674C1436.35 221.189 1442.8 226.121 1448.17 232.469C1453.54 238.719 1457.79 246.287 1460.91 255.174C1464.04 263.963 1465.6 273.533 1465.6 283.885C1465.6 294.334 1464.04 303.953 1460.91 312.742C1457.79 321.531 1453.54 329.1 1448.17 335.447C1442.8 341.697 1436.35 346.58 1428.83 350.096C1421.31 353.611 1413.16 355.369 1404.37 355.369C1396.75 355.369 1389.97 354.002 1384.01 351.268C1378.15 348.533 1372.34 344.578 1366.58 339.402V406.639H1336.26V215.477ZM1366.58 315.379C1370.19 319.383 1374.78 322.508 1380.35 324.754C1386.01 326.902 1391.43 327.977 1396.61 327.977C1408.03 327.977 1417.31 323.924 1424.44 315.818C1431.67 307.713 1435.28 297.068 1435.28 283.885C1435.28 270.701 1431.67 260.008 1424.44 251.805C1417.31 243.602 1408.03 239.5 1396.61 239.5C1391.43 239.5 1386.01 240.574 1380.35 242.723C1374.78 244.773 1370.19 247.801 1366.58 251.805V315.379ZM1492.26 312.742C1492.26 304.734 1494.41 297.752 1498.71 291.795C1503 285.74 1508.62 280.711 1515.55 276.707C1522.58 272.703 1530.59 269.725 1539.58 267.771C1548.66 265.721 1557.89 264.695 1567.26 264.695C1572.44 264.695 1576.88 264.793 1580.59 264.988C1584.3 265.184 1588.06 265.477 1591.87 265.867V260.447C1591.87 253.318 1589.09 247.996 1583.52 244.48C1578.05 240.965 1570.83 239.207 1561.84 239.207C1553.64 239.207 1545.29 240.379 1536.79 242.723C1528.3 244.969 1520.24 248.289 1512.62 252.684L1500.32 228.953C1509.3 223.777 1518.92 219.725 1529.18 216.795C1539.53 213.768 1550.42 212.254 1561.84 212.254C1569.26 212.254 1576.54 213.084 1583.67 214.744C1590.89 216.404 1597.34 219.139 1603 222.947C1608.77 226.756 1613.36 231.736 1616.77 237.889C1620.19 243.943 1621.9 251.463 1621.9 260.447V352H1591.87V331.932C1587.09 339.354 1580.01 345.115 1570.63 349.217C1561.35 353.318 1551.34 355.369 1540.6 355.369C1533.96 355.369 1527.66 354.441 1521.71 352.586C1515.85 350.828 1510.77 348.143 1506.47 344.529C1502.17 340.916 1498.71 336.473 1496.07 331.199C1493.53 325.828 1492.26 319.676 1492.26 312.742ZM1548.37 328.27C1554.32 328.27 1559.89 327.537 1565.06 326.072C1570.34 324.51 1574.98 322.41 1578.98 319.773C1582.98 317.039 1586.11 313.768 1588.36 309.959C1590.7 306.15 1591.87 301.951 1591.87 297.361V292.234C1587.09 291.453 1582.59 291.014 1578.39 290.916C1574.2 290.818 1570.48 290.77 1567.26 290.77C1552.42 290.77 1541.19 292.723 1533.57 296.629C1526.05 300.535 1522.29 305.369 1522.29 311.131C1522.29 322.557 1530.98 328.27 1548.37 328.27ZM1788.01 332.518C1779.22 341.307 1769.95 347.312 1760.18 350.535C1750.51 353.758 1740.02 355.369 1728.69 355.369C1717.26 355.369 1706.86 353.66 1697.49 350.242C1688.21 346.824 1680.3 342.039 1673.76 335.887C1667.31 329.637 1662.33 322.117 1658.81 313.328C1655.4 304.539 1653.69 294.725 1653.69 283.885C1653.69 273.533 1655.4 263.963 1658.81 255.174C1662.33 246.287 1667.02 238.719 1672.88 232.469C1678.83 226.121 1685.82 221.189 1693.82 217.674C1701.83 214.061 1710.33 212.254 1719.31 212.254C1728.69 212.254 1736.84 214.207 1743.78 218.113C1750.71 222.02 1755.74 227.732 1758.86 235.252V215.477H1785.96V279.051H1758.86C1758.86 267.039 1755.54 257.469 1748.9 250.34C1742.36 243.113 1733.81 239.5 1723.27 239.5C1719.07 239.5 1714.62 240.379 1709.94 242.137C1705.35 243.797 1701.1 246.434 1697.19 250.047C1693.38 253.66 1690.21 258.25 1687.67 263.816C1685.13 269.383 1683.86 276.072 1683.86 283.885C1683.86 291.502 1685.08 298.094 1687.53 303.66C1689.97 309.129 1693.14 313.67 1697.05 317.283C1701.05 320.799 1705.74 323.484 1711.11 325.34C1716.58 327.098 1722.19 327.977 1727.96 327.977C1737.82 327.977 1746.36 326.463 1753.59 323.436C1760.91 320.311 1767.21 316.209 1772.49 311.131L1788.01 332.518ZM1848.22 295.311C1849.68 304.686 1854.13 312.498 1861.55 318.748C1869.07 324.9 1879.13 327.977 1891.72 327.977C1901.59 327.977 1910.13 326.463 1917.36 323.436C1924.68 320.311 1930.98 316.209 1936.26 311.131L1951.78 332.518C1942.99 341.307 1933.67 347.312 1923.8 350.535C1914.04 353.758 1903.35 355.369 1891.72 355.369C1881.18 355.369 1871.36 353.611 1862.28 350.096C1853.2 346.58 1845.34 341.697 1838.7 335.447C1832.06 329.1 1826.83 321.58 1823.02 312.889C1819.31 304.197 1817.46 294.529 1817.46 283.885C1817.46 273.533 1819.17 264.012 1822.58 255.32C1826.1 246.531 1830.98 238.963 1837.23 232.615C1843.58 226.17 1851.15 221.189 1859.94 217.674C1868.73 214.061 1878.44 212.254 1889.09 212.254C1900.12 212.254 1910.13 214.158 1919.12 217.967C1928.1 221.678 1935.77 227.098 1942.12 234.227C1948.56 241.355 1953.59 250.096 1957.2 260.447C1960.82 270.701 1962.62 282.322 1962.62 295.311H1848.22ZM1928.35 268.65C1926.78 259.861 1922.24 252.83 1914.72 247.557C1907.2 242.186 1898.66 239.5 1889.09 239.5C1879.52 239.5 1870.92 242.186 1863.31 247.557C1855.69 252.83 1851.1 259.861 1849.54 268.65H1928.35Z" fill="#553E97"/>
<defs>
<linearGradient id="paint0_linear" x1="446" y1="688" x2="221" y2="-48" gradientUnits="userSpaceOnUse">
<stop stop-color="#281462"/>
<stop offset="0.993206" stop-color="#755CBD"/>
</linearGradient>
<linearGradient id="paint1_linear" x1="275" y1="37" x2="275" y2="512" gradientUnits="userSpaceOnUse">
<stop stop-color="white"/>
<stop offset="1" stop-color="#E7D9FF"/>
</linearGradient>
</defs>
</svg>
